<?xml version="1.0" standalone="no"?><!DOCTYPE svg PUBLIC "-//W3C//DTD SVG 1.1//EN" "http://www.w3.org/Graphics/SVG/1.1/DTD/svg11.dtd"><svg t="1757684921328" class="icon" viewBox="0 0 1024 1024" version="1.1" xmlns="http://www.w3.org/2000/svg" p-id="3704" xmlns:xlink="http://www.w3.org/1999/xlink" width="64" height="64"><path d="M984.13 642.191c0-30.745-21.611-56.37-50.667-62.802V459.88H906.44v119.51c-29.056 6.093-50.668 32.103-50.668 62.802s21.658 56.418 50.668 62.802v187.095h27.023V704.993c29.056-6.384 50.668-32.056 50.668-62.802z m-64.153 37.13a37.018 37.018 0 0 1-37.13-37.13 37.018 37.018 0 0 1 37.13-37.13 37.018 37.018 0 0 1 37.13 37.13 37.018 37.018 0 0 1-37.13 37.13zM629.56 512.19v-52.31h-27.028v52.357c-29.056 6.092-50.668 32.102-50.668 62.801 0 30.751 21.612 56.372 50.668 62.802v254.25h27.028v-254.3c29.056-6.094 50.668-32.103 50.668-62.803 0-30.694-21.612-56.366-50.668-62.797z m-13.486 99.979a37.018 37.018 0 0 1-37.13-37.13 37.018 37.018 0 0 1 37.13-37.13 37.018 37.018 0 0 1 37.13 37.13 37.053 37.053 0 0 1-37.13 37.13z m165.438 102.64v-254.93h-27.024v254.93c-29.056 6.093-50.667 32.103-50.667 62.802s21.611 56.371 50.667 62.802v52.357h27.024v-52.357c29.056-6.093 50.667-32.102 50.667-62.802s-21.611-56.371-50.667-62.802z m-13.486 99.927a37.018 37.018 0 0 1-37.13-37.13 37.018 37.018 0 0 1 37.13-37.13 37.018 37.018 0 0 1 37.13 37.13 37.018 37.018 0 0 1-37.13 37.13z m0 0M364.119 671.411h80.041v61.03h-80.041z m0-110.92H487.68v61.03H364.119z m0-119.495H542.72v61.03H364.119z m340.823-130.878H318.438V109.005H705.06z" fill="#bfbfbf" p-id="3705"></path><path d="M938.537 939.3H769.28v0.112H254.715V58.834H769.28V399.36h58.337V58.588C827.546 26.255 801.352 0.061 769.034 0H254.47c-32.333 0.061-58.527 26.255-58.598 58.588v880.717H84.946V1024h854.103l-0.512-84.7z" fill="#bfbfbf" p-id="3706"></path></svg>