<?xml version="1.0" standalone="no"?><!DOCTYPE svg PUBLIC "-//W3C//DTD SVG 1.1//EN" "http://www.w3.org/Graphics/SVG/1.1/DTD/svg11.dtd"><svg t="1757733305456" class="icon" viewBox="0 0 1228 1024" version="1.1" xmlns="http://www.w3.org/2000/svg" p-id="9343" xmlns:xlink="http://www.w3.org/1999/xlink" width="76.75" height="64"><path d="M1181.118438 870.188509H46.98941A47.066316 47.066316 0 0 1 0 823.199099V46.98941A47.066316 47.066316 0 0 1 46.98941 0h1134.129028a47.066316 47.066316 0 0 1 46.98941 46.98941V822.891476a47.066316 47.066316 0 0 1-46.98941 47.297033zM88.518513 781.669996h1051.070822V88.441607H88.518513z m34.915208 153.811491h981.240406v88.518513H123.049193z" fill="#43c485" p-id="9344"></path><path d="M520.574991 274.630417h501.886894v88.518513H520.574991z m0 244.714082h501.886894v88.518513H520.574991zM249.251521 437.132257L168.269771 334.539992l69.215171-54.833796 26.224859 33.223282 128.586406-100.977244 54.679985 69.5997z m0 256.480661L168.269771 591.020653l69.215171-54.833796 26.224859 33.300188 128.586406-100.977244 54.679985 69.5997z" fill="#43c485" p-id="9345"></path></svg>