<?xml version="1.0" standalone="no"?><!DOCTYPE svg PUBLIC "-//W3C//DTD SVG 1.1//EN" "http://www.w3.org/Graphics/SVG/1.1/DTD/svg11.dtd"><svg t="1757606392832" class="icon" viewBox="0 0 1026 1024" version="1.1" xmlns="http://www.w3.org/2000/svg" p-id="16895" width="64.125" height="64" xmlns:xlink="http://www.w3.org/1999/xlink"><path d="M880.410483 658.285714a144.324028 144.324028 0 0 0-69.779967 18.495895L652.014205 560.481664a145.164751 145.164751 0 0 0 8.687465-48.201423 144.604269 144.604269 0 0 0-1.401204-14.852764l146.285715-87.715381a109.293924 109.293924 0 1 0-35.030104-80.148878 112.096333 112.096333 0 0 0 1.401204 14.852764l-138.719212 84.07225a146.005473 146.005473 0 0 0-82.110564-56.048166v-84.07225a146.285714 146.285714 0 1 0-73.142857 0v84.07225a146.285714 146.285714 0 0 0-86.314176 62.493705L254.912946 352.262726a109.574165 109.574165 0 1 0-107.051998 86.594417 108.733443 108.733443 0 0 0 68.378763-24.661193L368.970964 504.433498v6.72578a144.88451 144.88451 0 0 0 8.126985 49.322386l-156.654626 117.140668a144.043788 144.043788 0 0 0-71.461412-19.616859A147.686918 147.686918 0 1 0 273.689082 728.626163l144.324028-108.172961A145.725233 145.725233 0 0 0 479.105611 652.961138v158.05583a109.574165 109.574165 0 1 0 73.142858 0V652.961138a145.164751 145.164751 0 0 0 59.971538-32.227695L756.263794 728.626163a144.604269 144.604269 0 0 0-22.419266 76.785988 146.285714 146.285714 0 1 0 146.285714-146.285714zM441.55334 146.285714a73.142857 73.142857 0 1 1 73.142857 73.142857 73.142857 73.142857 0 0 1-73.142857-73.142857zM148.981911 877.714286a73.142857 73.142857 0 1 1 73.142857-73.142857 73.142857 73.142857 0 0 1-73.142857 73.142857z m364.313082-292.571429a73.142857 73.142857 0 1 1 73.142857-73.142857 73.142857 73.142857 0 0 1-73.142857 73.142857z m364.313081 292.571429a73.142857 73.142857 0 1 1 73.142858-73.142857 73.142857 73.142857 0 0 1-73.142858 73.142857z m0 0" p-id="16896" fill="#43c485"></path></svg>