<?xml version="1.0" standalone="no"?><!DOCTYPE svg PUBLIC "-//W3C//DTD SVG 1.1//EN" "http://www.w3.org/Graphics/SVG/1.1/DTD/svg11.dtd"><svg t="1757691344839" class="icon" viewBox="0 0 1024 1024" version="1.1" xmlns="http://www.w3.org/2000/svg" p-id="5839" xmlns:xlink="http://www.w3.org/1999/xlink" width="64" height="64"><path d="M961.1776 414.8224l-391.0656-341.504a91.2384 91.2384 0 0 0-119.1424 0l-388.096 341.7088a36.8128 36.8128 0 0 0-5.12 47.8208 28.672 28.672 0 0 0 42.9568 5.6832l12.4928-11.008v412.9792C113.2032 928.9728 167.68 972.8 216.4224 972.8h612.2496c48.0768 0 80.4864-41.0624 80.4864-102.2976V456.448l13.824 12.0832a28.16 28.16 0 0 0 18.944 7.3216 29.5936 29.5936 0 0 0 24.1664-13.0048 36.8128 36.8128 0 0 0-4.9152-48.0256z m-357.9904 418.5088v71.1168H419.5328V713.6256c0-39.6288 28.7744-82.3296 91.8016-82.3296 63.232 0 91.8528 42.7008 91.8528 82.3296v119.7056z" fill="#43c485" p-id="5840"></path></svg>