<?xml version="1.0" standalone="no"?><!DOCTYPE svg PUBLIC "-//W3C//DTD SVG 1.1//EN" "http://www.w3.org/Graphics/SVG/1.1/DTD/svg11.dtd"><svg t="1757685996758" class="icon" viewBox="0 0 1024 1024" version="1.1" xmlns="http://www.w3.org/2000/svg" p-id="8300" xmlns:xlink="http://www.w3.org/1999/xlink" width="64" height="64"><path d="M803.584 102.4c-79.4112 0-143.9232 63.1808-143.9232 141.1072 0 56.576 33.536 105.1648 82.4832 127.9488l-61.3376 118.8352a146.944 146.944 0 0 0-103.6288 26.3168l-67.584-68.8128c10.8032-19.712 16.4864-41.9328 16.4864-65.7408 0-77.8752-64.4096-141.1072-143.8208-141.1072-79.4112 0-143.872 62.72-143.872 141.1072 0 47.5136 23.7056 89.4976 60.3136 115.3024l-73.6768 142.08h-4.096c-79.4624 0-143.872 63.1808-143.872 141.056S141.4656 921.6 220.928 921.6c79.36 0 144.384-63.1808 144.384-141.1072 0-54.1184-30.9248-100.608-76.3392-124.416l69.632-134.4512c7.7312 1.536 15.4624 1.9968 23.7056 1.9968 31.9488 0 61.3376-10.0864 85.0944-27.2896l67.5328 69.2736c-10.3424 19.712-16.4864 41.984-16.4864 65.7408 0 77.8752 64.4608 141.056 143.872 141.056s143.9232-63.1808 143.9232-141.056c0-49.5616-25.8048-93.0304-65.4848-118.3744l65.9968-127.3856c77.8752-2.048 140.2368-64.256 140.2368-141.1072C947.456 166.0928 882.9952 102.4 803.584 102.4zM459.6736 381.0304c0 42.9568-35.584 77.8752-79.4112 77.8752-43.776 0-79.4112-34.9184-79.4112-77.8752 0-43.008 35.584-77.8752 79.4112-77.8752 43.776 0 79.4112 34.9184 79.4112 77.8752z m282.5216 249.7536c0 43.008-35.5328 77.8752-79.4112 77.8752-43.776 0-79.4112-34.9184-79.4112-77.8752 0-42.9568 35.584-77.8752 79.4112-77.8752 43.8784 0.0512 79.4112 34.9184 79.4112 77.8752z m0 0" fill="#bfbfbf" p-id="8301"></path><path d="M358.6048 521.1136s-35.072-1.9968-59.8528-24.2688c-24.7296 46.4896-73.6768 142.08-73.6768 142.08s27.3408-0.512 63.3856 16.64c11.8272-22.1696 70.144-134.4512 70.144-134.4512z m448.6144-136.0384s-36.096 0-65.024-13.6704c-24.6784 46.5408-61.3376 118.8352-61.3376 118.8352s32 5.0688 60.8256 21.76c11.3664-22.272 65.536-126.9248 65.536-126.9248zM509.696 447.7952s-18.0736 28.8256-42.2912 48.0256c27.8528 28.8256 67.5328 69.2736 67.5328 69.2736s18.5856-34.4064 42.3424-48.0256c-36.6592-36.4032-67.584-69.2736-67.584-69.2736z m0 0" fill="#bfbfbf" p-id="8302"></path></svg>