<?xml version="1.0" standalone="no"?><!DOCTYPE svg PUBLIC "-//W3C//DTD SVG 1.1//EN" "http://www.w3.org/Graphics/SVG/1.1/DTD/svg11.dtd"><svg t="1757607124942" class="icon" viewBox="0 0 1308 1024" version="1.1" xmlns="http://www.w3.org/2000/svg" p-id="30748" xmlns:xlink="http://www.w3.org/1999/xlink" width="81.75" height="64"><path d="M665.941333 202.695111l5.233778 0.341333c18.773333 2.673778 33.166222 19.626667 33.166222 40.163556v364.771556c0 22.471111 17.123556 40.561778 38.4 40.561777h518.087111c10.524444 0 19.171556 9.102222 19.171556 20.252445v324.266666a19.797333 19.797333 0 0 1-19.171556 20.309334H71.111111a19.797333 19.797333 0 0 1-19.171555-20.309334v-324.266666c0-11.150222 8.590222-20.252444 19.171555-20.252445h518.087111c21.219556 0 38.4-18.090667 38.4-40.561777V243.256889c0-22.414222 17.123556-40.561778 38.343111-40.561778z m532.48 526.904889H133.518222c-2.616889 0-4.778667 2.275556-4.778666 5.12v192.455111c0 2.844444 2.161778 5.12 4.778666 5.12h1064.96c2.673778 0 4.835556-2.275556 4.835556-5.12v-192.512c0-2.787556-2.161778-5.063111-4.778667-5.063111z m-123.107555 81.066667l6.371555 0.341333c29.297778 3.299556 52.110222 28.899556 52.110223 60.017778 0 33.336889-26.168889 60.359111-58.481778 60.359111-32.256 0-58.481778-27.022222-58.481778-60.302222 0-33.393778 26.168889-60.416 58.481778-60.416z m-155.932445 0l6.371556 0.341333c29.297778 3.299556 52.110222 28.899556 52.110222 60.017778 0 33.336889-26.168889 60.359111-58.481778 60.359111-32.312889 0-58.481778-27.022222-58.481777-60.302222 0-33.393778 26.168889-60.416 58.481777-60.416z m-155.932444 20.138666l5.290667 0.341334a39.822222 39.822222 0 0 1 33.678222 39.879111 39.594667 39.594667 0 0 1-38.968889 40.277333 39.594667 39.594667 0 0 1-39.025778-40.277333c0-22.243556 17.464889-40.220444 39.025778-40.220445z m-136.476445 0v80.497778H198.087111v-80.497778h428.885333zM1116.501333 0l10.979556 17.180444A574.577778 574.577778 0 0 1 1211.733333 318.179556c0 120.263111-36.408889 231.708444-98.702222 323.242666l-64.056889-45.681778a490.211556 490.211556 0 0 0 84.878222-277.560888c0-65.251556-12.401778-128.568889-36.807111-188.017778A486.4 486.4 0 0 0 1052.444444 45.795556L1116.501333 0zM215.381333 0l64.284445 45.795556a491.349333 491.349333 0 0 0-81.521778 272.384 490.666667 490.666667 0 0 0 84.764444 277.447111l-64.056888 45.795555a573.667556 573.667556 0 0 1-98.702223-323.242666c0-118.101333 35.214222-227.612444 95.288889-318.179556z m140.629334 100.465778l64.113777 45.795555a311.466667 311.466667 0 0 0-53.873777 175.672889c0 41.301333 7.793778 81.294222 23.153777 119.011556 8.305778 20.138667 18.488889 39.082667 30.549334 56.888889l-64.056889 45.738666A393.272889 393.272889 0 0 1 288.256 321.991111c0-82.432 25.031111-158.890667 67.754667-221.525333z m614.968889 3.413333l9.272888 14.563556a394.012444 394.012444 0 0 1 56.092445 203.548444 393.671111 393.671111 0 0 1-65.308445 218.055111l-64.113777-45.795555a311.864889 311.864889 0 0 0 51.427555-172.316445 310.897778 310.897778 0 0 0-51.427555-172.259555l64.113777-45.795556z m-112.64 80.611556l7.509333 11.946666a246.328889 246.328889 0 0 1 34.019555 125.553778c0 51.029333-15.36 98.417778-41.528888 137.443556l-64.113778-45.795556a164.408889 164.408889 0 0 0 27.704889-91.648 164.408889 164.408889 0 0 0-27.704889-91.704889l64.113778-45.795555z m-384.739556 0l64.056889 45.795555a164.522667 164.522667 0 0 0-27.648 91.704889c0 33.166222 9.728 64.853333 27.648 91.648l-64.056889 45.795556a245.816889 245.816889 0 0 1-41.528889-137.443556c0-51.086222 15.36-98.474667 41.528889-137.500444z" fill="#43c485" p-id="30749"></path></svg>